{
  "title": "PINK (2016) x264 DesiSCR Rip AAC 2.0 -DDR",
  "uid": 15847185,
  "size": 1466888634,
  "categoryP": "video",
  "categoryS": "movies",
  "magnet": "?xt=urn:btih:1cdcf8628ca9bbbe3817af54f8e8af7f8ff8b5af&amp;dn=PINK+%282016%29+x264+DesiSCR+Rip+AAC+2.0+-DDR&amp;tr=udp%3A%2F%2Ftracker.leechers-paradise.org%3A6969&amp;tr=udp%3A%2F%2Fzer0day.ch%3A1337&amp;tr=udp%3A%2F%2Fopen.demonii.com%3A1337&amp;tr=udp%3A%2F%2Ftracker.coppersurfer.tk%3A6969&amp;tr=udp%3A%2F%2Fexodus.desync.com%3A6969",
  "seeders": 1294,
  "leechers": 608,
  "uploader": "SaM",
  "files": 3,
  "time": 1474115936,
  "description": "1/3 DvD x264 DesiSCR Rip\r\n\r\nHindi AAC Stereo Audio\r\n \nhttp://extraimago.com/image/wdVk \nhttp://extraimago.com/image/wdVP \nhttp://extraimago.com/image/wdVp \nhttp://extraimago.com/image/wdVY \nhttp://extraimago.com/image/wduN \nhttp://extraimago.com/image/wdu2 \nhttp://extraimago.com/image/wduw \nhttp://extraimago.com/image/wdua \nhttp://extraimago.com/image/wdVf \nhttp://extraimago.com/image/wdVA \nhttp://extraimago.com/image/wdVv \nhttp://extraimago.com/image/wdVu \nhttp://extraimago.com/image/wdVV \nhttp://extraimago.com/image/wdV6 \nhttp://extraimago.com/image/wdVx\r\n\r\nSpecs:\r\nSource: DesiSCR @ ICTV\r\n\r\nFormat : Matroska\r\nFile size : 1.36 GiB\r\nDuration : 2 h 15 min\r\nOverall bit rate : 1 430 kb/s\r\n\r\nVideo\r\nID : 1\r\nFormat : AVC\r\nFormat/Info : Advanced Video Codec\r\nFormat profile :   \r\nFormat settings, CABAC : Yes\r\nFormat settings, ReFrames : 16 frames\r\nCodec ID : V_MPEG4/ISO/AVC\r\nDuration : 2 h 15 min\r\nBit rate : 1 300 kb/s\r\nWidth : 720 pixels\r\nHeight : 304 pixels\r\nDisplay aspect ratio : 2.35:1\r\nFrame rate mode : Constant\r\nFrame rate : 25.000 FPS\r\nColor space : YUV\r\nChroma subsampling : 4:2:0\r\nBit depth : 8 bits\r\nScan type : Progressive\r\nBits/(Pixel*Frame) : 0.238\r\nStream size : 1.23 GiB (91%)\r\nDefault : Yes\r\nForced : No\r\nColor range : Limited\r\nColor primaries : BT.601 NTSC\r\nTransfer characteristics : BT.470 System B, BT.470 System G\r\nMatrix coefficients : BT.601\r\n\r\nAudio\r\nID : 2\r\nFormat : AAC\r\nFormat/Info : Advanced Audio Codec\r\nFormat profile : LC\r\nCodec ID : A_AAC\r\nDuration : 2 h 15 min\r\nBit rate : 128 kb/s\r\nChannel(s) : 2 channels\r\nChannel positions : Front: L R\r\nSampling rate : 48.0 kHz\r\nFrame rate : 46.875 FPS (1024 spf)\r\nCompression mode : Lossy\r\nDelay relative to video : 9 ms\r\nStream size : 124 MiB (9%)\r\nLanguage : Hindi\r\nDefault : Yes\r\nForced : No",
  "parsed": {
    "xt": "urn:btih:1cdcf8628ca9bbbe3817af54f8e8af7f8ff8b5af",
    "dn": "PINK (2016) x264 DesiSCR Rip AAC 2.0 -DDR",
    "tr": [
      "udp://exodus.desync.com:6969",
      "udp://open.demonii.com:1337",
      "udp://tracker.coppersurfer.tk:6969",
      "udp://tracker.leechers-paradise.org:6969",
      "udp://zer0day.ch:1337"
    ],
    "infoHash": "1cdcf8628ca9bbbe3817af54f8e8af7f8ff8b5af",
    "infoHashBuffer": {
      "type": "Buffer",
      "data": [
        28,
        220,
        248,
        98,
        140,
        169,
        187,
        190,
        56,
        23,
        175,
        84,
        248,
        232,
        175,
        127,
        143,
        248,
        181,
        175
      ]
    },
    "name": "PINK (2016) x264 DesiSCR Rip AAC 2.0 -DDR",
    "announce": [
      "udp://exodus.desync.com:6969",
      "udp://open.demonii.com:1337",
      "udp://tracker.coppersurfer.tk:6969",
      "udp://tracker.leechers-paradise.org:6969",
      "udp://zer0day.ch:1337"
    ],
    "urlList": []
  },
  "previous": 1902,
  "peers": 331,
  "last_updated": "2016-12-24T18:56:10.348Z"
}